<mxfile host="app.diagrams.net" modified="2022-01-28T18:23:32.615Z" agent="5.0 (Windows NT 10.0; Win64; x64) AppleWebKit/537.36 (KHTML, like Gecko) Chrome/97.0.4692.99 Safari/537.36" etag="HRCZ-YcB90PaHCVCRLh_" version="15.7.3" type="github">
  <diagram id="oH4kFcb2uMp0xBkGtDQY" name="Page-1">
    <mxGraphModel dx="3460" dy="1823" grid="1" gridSize="10" guides="1" tooltips="1" connect="1" arrows="1" fold="1" page="1" pageScale="1" pageWidth="1654" pageHeight="1169" math="0" shadow="0">
      <root>
        <mxCell id="0" />
        <mxCell id="1" parent="0" />
        <mxCell id="STUQcW0Rxr31aZqgUczU-74" value="" style="rounded=0;whiteSpace=wrap;html=1;fontSize=12;" vertex="1" parent="1">
          <mxGeometry x="1270" y="404.25" width="177.16" height="250" as="geometry" />
        </mxCell>
        <mxCell id="STUQcW0Rxr31aZqgUczU-1" value="" style="rounded=0;whiteSpace=wrap;html=1;" vertex="1" parent="1">
          <mxGeometry x="50" y="560" width="1220" height="210" as="geometry" />
        </mxCell>
        <mxCell id="STUQcW0Rxr31aZqgUczU-2" value="" style="rounded=0;whiteSpace=wrap;html=1;" vertex="1" parent="1">
          <mxGeometry x="50" y="270" width="1220" height="290" as="geometry" />
        </mxCell>
        <mxCell id="STUQcW0Rxr31aZqgUczU-3" value="" style="rounded=0;whiteSpace=wrap;html=1;" vertex="1" parent="1">
          <mxGeometry x="50" y="560" width="60" height="210" as="geometry" />
        </mxCell>
        <mxCell id="STUQcW0Rxr31aZqgUczU-4" value="" style="rounded=0;whiteSpace=wrap;html=1;" vertex="1" parent="1">
          <mxGeometry x="50" y="270" width="60" height="290" as="geometry" />
        </mxCell>
        <mxCell id="STUQcW0Rxr31aZqgUczU-5" value="" style="rounded=0;whiteSpace=wrap;html=1;" vertex="1" parent="1">
          <mxGeometry x="50" y="20" width="1220" height="250" as="geometry" />
        </mxCell>
        <mxCell id="STUQcW0Rxr31aZqgUczU-6" value="" style="rounded=0;whiteSpace=wrap;html=1;" vertex="1" parent="1">
          <mxGeometry x="50" y="20" width="60" height="250" as="geometry" />
        </mxCell>
        <mxCell id="STUQcW0Rxr31aZqgUczU-7" value="Online Site of Lidl" style="text;html=1;strokeColor=none;fillColor=none;align=center;verticalAlign=middle;whiteSpace=wrap;rounded=0;rotation=-90;fontSize=18;" vertex="1" parent="1">
          <mxGeometry x="30" y="110" width="100" height="30" as="geometry" />
        </mxCell>
        <mxCell id="STUQcW0Rxr31aZqgUczU-8" value="Customer" style="text;html=1;strokeColor=none;fillColor=none;align=center;verticalAlign=middle;whiteSpace=wrap;rounded=0;rotation=-90;fontSize=18;" vertex="1" parent="1">
          <mxGeometry x="30" y="430" width="100" height="30" as="geometry" />
        </mxCell>
        <mxCell id="STUQcW0Rxr31aZqgUczU-9" value="Physical Store" style="text;html=1;strokeColor=none;fillColor=none;align=center;verticalAlign=middle;whiteSpace=wrap;rounded=0;rotation=-90;fontSize=18;" vertex="1" parent="1">
          <mxGeometry x="30" y="640" width="100" height="30" as="geometry" />
        </mxCell>
        <mxCell id="STUQcW0Rxr31aZqgUczU-27" style="edgeStyle=orthogonalEdgeStyle;rounded=0;orthogonalLoop=1;jettySize=auto;html=1;exitX=0.5;exitY=0;exitDx=0;exitDy=0;entryX=0.5;entryY=1;entryDx=0;entryDy=0;fontSize=14;" edge="1" parent="1" source="STUQcW0Rxr31aZqgUczU-10" target="STUQcW0Rxr31aZqgUczU-12">
          <mxGeometry relative="1" as="geometry" />
        </mxCell>
        <mxCell id="STUQcW0Rxr31aZqgUczU-10" value="Enter to the website" style="rounded=0;whiteSpace=wrap;html=1;fontSize=18;" vertex="1" parent="1">
          <mxGeometry x="130" y="370" width="120" height="60" as="geometry" />
        </mxCell>
        <mxCell id="STUQcW0Rxr31aZqgUczU-28" style="edgeStyle=orthogonalEdgeStyle;rounded=0;orthogonalLoop=1;jettySize=auto;html=1;exitX=1;exitY=0.5;exitDx=0;exitDy=0;entryX=0.5;entryY=1;entryDx=0;entryDy=0;fontSize=14;" edge="1" parent="1" source="STUQcW0Rxr31aZqgUczU-11" target="STUQcW0Rxr31aZqgUczU-14">
          <mxGeometry relative="1" as="geometry" />
        </mxCell>
        <mxCell id="STUQcW0Rxr31aZqgUczU-11" value="Visit for the store&amp;nbsp;" style="rounded=0;whiteSpace=wrap;html=1;fontSize=18;" vertex="1" parent="1">
          <mxGeometry x="130" y="470" width="120" height="60" as="geometry" />
        </mxCell>
        <mxCell id="STUQcW0Rxr31aZqgUczU-25" style="edgeStyle=orthogonalEdgeStyle;rounded=0;orthogonalLoop=1;jettySize=auto;html=1;exitX=1;exitY=0.5;exitDx=0;exitDy=0;fontSize=14;" edge="1" parent="1" source="STUQcW0Rxr31aZqgUczU-12" target="STUQcW0Rxr31aZqgUczU-23">
          <mxGeometry relative="1" as="geometry" />
        </mxCell>
        <mxCell id="STUQcW0Rxr31aZqgUczU-38" style="edgeStyle=orthogonalEdgeStyle;rounded=0;orthogonalLoop=1;jettySize=auto;html=1;entryX=0;entryY=0.5;entryDx=0;entryDy=0;fontSize=14;" edge="1" parent="1" source="STUQcW0Rxr31aZqgUczU-12" target="STUQcW0Rxr31aZqgUczU-19">
          <mxGeometry relative="1" as="geometry" />
        </mxCell>
        <mxCell id="STUQcW0Rxr31aZqgUczU-12" value="&lt;font style=&quot;font-size: 14px&quot;&gt;Authentication &lt;br&gt;test&lt;/font&gt;" style="rhombus;whiteSpace=wrap;html=1;fontSize=18;" vertex="1" parent="1">
          <mxGeometry x="115" y="70" width="150" height="120" as="geometry" />
        </mxCell>
        <mxCell id="STUQcW0Rxr31aZqgUczU-29" style="edgeStyle=orthogonalEdgeStyle;rounded=0;orthogonalLoop=1;jettySize=auto;html=1;exitX=1;exitY=0.5;exitDx=0;exitDy=0;entryX=0;entryY=0.5;entryDx=0;entryDy=0;fontSize=14;" edge="1" parent="1" source="STUQcW0Rxr31aZqgUczU-14" target="STUQcW0Rxr31aZqgUczU-16">
          <mxGeometry relative="1" as="geometry" />
        </mxCell>
        <mxCell id="STUQcW0Rxr31aZqgUczU-49" style="edgeStyle=orthogonalEdgeStyle;rounded=0;orthogonalLoop=1;jettySize=auto;html=1;entryX=0;entryY=0.5;entryDx=0;entryDy=0;fontSize=14;" edge="1" parent="1" source="STUQcW0Rxr31aZqgUczU-14" target="STUQcW0Rxr31aZqgUczU-48">
          <mxGeometry relative="1" as="geometry">
            <Array as="points">
              <mxPoint x="440" y="369" />
            </Array>
          </mxGeometry>
        </mxCell>
        <mxCell id="STUQcW0Rxr31aZqgUczU-14" value="View products availability and offers" style="rounded=0;whiteSpace=wrap;html=1;fontSize=18;" vertex="1" parent="1">
          <mxGeometry x="290" y="407.5" width="150" height="95" as="geometry" />
        </mxCell>
        <mxCell id="STUQcW0Rxr31aZqgUczU-31" style="edgeStyle=orthogonalEdgeStyle;rounded=0;orthogonalLoop=1;jettySize=auto;html=1;entryX=0.401;entryY=0.024;entryDx=0;entryDy=0;entryPerimeter=0;fontSize=14;" edge="1" parent="1" source="STUQcW0Rxr31aZqgUczU-16" target="STUQcW0Rxr31aZqgUczU-21">
          <mxGeometry relative="1" as="geometry" />
        </mxCell>
        <mxCell id="STUQcW0Rxr31aZqgUczU-16" value="Add product for the cart" style="rounded=0;whiteSpace=wrap;html=1;fontSize=18;" vertex="1" parent="1">
          <mxGeometry x="480" y="425" width="120" height="60" as="geometry" />
        </mxCell>
        <mxCell id="STUQcW0Rxr31aZqgUczU-33" style="edgeStyle=orthogonalEdgeStyle;rounded=0;orthogonalLoop=1;jettySize=auto;html=1;entryX=0.5;entryY=0;entryDx=0;entryDy=0;fontSize=14;" edge="1" parent="1" source="STUQcW0Rxr31aZqgUczU-17" target="STUQcW0Rxr31aZqgUczU-18">
          <mxGeometry relative="1" as="geometry" />
        </mxCell>
        <mxCell id="STUQcW0Rxr31aZqgUczU-17" value="Pay for the products" style="rounded=0;whiteSpace=wrap;html=1;fontSize=18;" vertex="1" parent="1">
          <mxGeometry x="640" y="425" width="120" height="60" as="geometry" />
        </mxCell>
        <mxCell id="STUQcW0Rxr31aZqgUczU-34" style="edgeStyle=orthogonalEdgeStyle;rounded=0;orthogonalLoop=1;jettySize=auto;html=1;fontSize=14;" edge="1" parent="1" source="STUQcW0Rxr31aZqgUczU-18" target="STUQcW0Rxr31aZqgUczU-22">
          <mxGeometry relative="1" as="geometry" />
        </mxCell>
        <mxCell id="STUQcW0Rxr31aZqgUczU-37" style="edgeStyle=orthogonalEdgeStyle;rounded=0;orthogonalLoop=1;jettySize=auto;html=1;exitX=0.5;exitY=1;exitDx=0;exitDy=0;entryX=0.5;entryY=0;entryDx=0;entryDy=0;fontSize=14;" edge="1" parent="1" source="STUQcW0Rxr31aZqgUczU-18" target="STUQcW0Rxr31aZqgUczU-20">
          <mxGeometry relative="1" as="geometry" />
        </mxCell>
        <mxCell id="STUQcW0Rxr31aZqgUczU-18" value="&lt;font style=&quot;font-size: 14px&quot;&gt;Acceptance of the&amp;nbsp;&lt;br&gt;payment&lt;/font&gt;" style="rhombus;whiteSpace=wrap;html=1;fontSize=18;" vertex="1" parent="1">
          <mxGeometry x="650" y="580" width="150" height="120" as="geometry" />
        </mxCell>
        <mxCell id="STUQcW0Rxr31aZqgUczU-19" value="" style="ellipse;whiteSpace=wrap;html=1;fontSize=14;" vertex="1" parent="1">
          <mxGeometry x="250" y="30" width="40" height="40" as="geometry" />
        </mxCell>
        <mxCell id="STUQcW0Rxr31aZqgUczU-20" value="" style="ellipse;whiteSpace=wrap;html=1;fontSize=14;" vertex="1" parent="1">
          <mxGeometry x="705" y="720" width="40" height="40" as="geometry" />
        </mxCell>
        <mxCell id="STUQcW0Rxr31aZqgUczU-32" style="edgeStyle=orthogonalEdgeStyle;rounded=0;orthogonalLoop=1;jettySize=auto;html=1;entryX=0;entryY=1;entryDx=0;entryDy=0;fontSize=14;" edge="1" parent="1" source="STUQcW0Rxr31aZqgUczU-21" target="STUQcW0Rxr31aZqgUczU-17">
          <mxGeometry relative="1" as="geometry" />
        </mxCell>
        <mxCell id="STUQcW0Rxr31aZqgUczU-21" value="Prepare Bill" style="rounded=0;whiteSpace=wrap;html=1;fontSize=18;" vertex="1" parent="1">
          <mxGeometry x="390" y="625" width="120" height="60" as="geometry" />
        </mxCell>
        <mxCell id="STUQcW0Rxr31aZqgUczU-36" style="edgeStyle=orthogonalEdgeStyle;rounded=0;orthogonalLoop=1;jettySize=auto;html=1;entryX=0;entryY=0.5;entryDx=0;entryDy=0;fontSize=14;" edge="1" parent="1" source="STUQcW0Rxr31aZqgUczU-22" target="STUQcW0Rxr31aZqgUczU-35">
          <mxGeometry relative="1" as="geometry" />
        </mxCell>
        <mxCell id="STUQcW0Rxr31aZqgUczU-22" value="Collect the product from the store" style="rounded=0;whiteSpace=wrap;html=1;fontSize=18;" vertex="1" parent="1">
          <mxGeometry x="880" y="402.5" width="160" height="105" as="geometry" />
        </mxCell>
        <mxCell id="STUQcW0Rxr31aZqgUczU-26" style="edgeStyle=orthogonalEdgeStyle;rounded=0;orthogonalLoop=1;jettySize=auto;html=1;fontSize=14;" edge="1" parent="1" source="STUQcW0Rxr31aZqgUczU-23" target="STUQcW0Rxr31aZqgUczU-14">
          <mxGeometry relative="1" as="geometry" />
        </mxCell>
        <mxCell id="STUQcW0Rxr31aZqgUczU-23" value="Provide interface for see details" style="rounded=0;whiteSpace=wrap;html=1;fontSize=18;" vertex="1" parent="1">
          <mxGeometry x="310" y="82.5" width="150" height="95" as="geometry" />
        </mxCell>
        <mxCell id="STUQcW0Rxr31aZqgUczU-35" value="" style="ellipse;whiteSpace=wrap;html=1;fontSize=14;" vertex="1" parent="1">
          <mxGeometry x="1080" y="435" width="40" height="40" as="geometry" />
        </mxCell>
        <mxCell id="STUQcW0Rxr31aZqgUczU-39" value="fail" style="text;html=1;strokeColor=none;fillColor=none;align=center;verticalAlign=middle;whiteSpace=wrap;rounded=0;fontSize=14;" vertex="1" parent="1">
          <mxGeometry x="130" y="50" width="60" height="30" as="geometry" />
        </mxCell>
        <mxCell id="STUQcW0Rxr31aZqgUczU-40" value="Success" style="text;html=1;strokeColor=none;fillColor=none;align=center;verticalAlign=middle;whiteSpace=wrap;rounded=0;fontSize=14;" vertex="1" parent="1">
          <mxGeometry x="240" y="147.5" width="60" height="30" as="geometry" />
        </mxCell>
        <mxCell id="STUQcW0Rxr31aZqgUczU-41" value="Accept" style="text;html=1;strokeColor=none;fillColor=none;align=center;verticalAlign=middle;whiteSpace=wrap;rounded=0;fontSize=14;" vertex="1" parent="1">
          <mxGeometry x="820" y="650" width="60" height="30" as="geometry" />
        </mxCell>
        <mxCell id="STUQcW0Rxr31aZqgUczU-42" value="Reject" style="text;html=1;strokeColor=none;fillColor=none;align=center;verticalAlign=middle;whiteSpace=wrap;rounded=0;fontSize=14;" vertex="1" parent="1">
          <mxGeometry x="640" y="690" width="60" height="30" as="geometry" />
        </mxCell>
        <mxCell id="STUQcW0Rxr31aZqgUczU-44" value="Reject order" style="text;html=1;strokeColor=none;fillColor=none;align=center;verticalAlign=middle;whiteSpace=wrap;rounded=0;fontSize=14;" vertex="1" parent="1">
          <mxGeometry x="750" y="725" width="100" height="30" as="geometry" />
        </mxCell>
        <mxCell id="STUQcW0Rxr31aZqgUczU-45" value="End success order" style="text;html=1;strokeColor=none;fillColor=none;align=center;verticalAlign=middle;whiteSpace=wrap;rounded=0;fontSize=14;" vertex="1" parent="1">
          <mxGeometry x="1020" y="520" width="100" height="30" as="geometry" />
        </mxCell>
        <mxCell id="STUQcW0Rxr31aZqgUczU-46" value="Reject the entering request" style="text;html=1;strokeColor=none;fillColor=none;align=center;verticalAlign=middle;whiteSpace=wrap;rounded=0;fontSize=14;" vertex="1" parent="1">
          <mxGeometry x="280" y="35" width="140" height="30" as="geometry" />
        </mxCell>
        <mxCell id="STUQcW0Rxr31aZqgUczU-51" style="edgeStyle=orthogonalEdgeStyle;rounded=0;orthogonalLoop=1;jettySize=auto;html=1;entryX=0.5;entryY=1;entryDx=0;entryDy=0;fontSize=14;" edge="1" parent="1" source="STUQcW0Rxr31aZqgUczU-48" target="STUQcW0Rxr31aZqgUczU-50">
          <mxGeometry relative="1" as="geometry" />
        </mxCell>
        <mxCell id="STUQcW0Rxr31aZqgUczU-62" style="edgeStyle=orthogonalEdgeStyle;rounded=0;orthogonalLoop=1;jettySize=auto;html=1;entryX=0;entryY=0.5;entryDx=0;entryDy=0;fontSize=14;" edge="1" parent="1" source="STUQcW0Rxr31aZqgUczU-48" target="STUQcW0Rxr31aZqgUczU-61">
          <mxGeometry relative="1" as="geometry" />
        </mxCell>
        <mxCell id="STUQcW0Rxr31aZqgUczU-48" value="Add or remove product from virtual cart" style="rounded=0;whiteSpace=wrap;html=1;fontSize=18;" vertex="1" parent="1">
          <mxGeometry x="470" y="330" width="180" height="77.5" as="geometry" />
        </mxCell>
        <mxCell id="STUQcW0Rxr31aZqgUczU-53" style="edgeStyle=orthogonalEdgeStyle;rounded=0;orthogonalLoop=1;jettySize=auto;html=1;entryX=0;entryY=0.5;entryDx=0;entryDy=0;fontSize=14;" edge="1" parent="1" source="STUQcW0Rxr31aZqgUczU-50" target="STUQcW0Rxr31aZqgUczU-52">
          <mxGeometry relative="1" as="geometry" />
        </mxCell>
        <mxCell id="STUQcW0Rxr31aZqgUczU-50" value="Check the availabiity of products through inventory management system" style="rounded=0;whiteSpace=wrap;html=1;fontSize=18;" vertex="1" parent="1">
          <mxGeometry x="490" y="50" width="160" height="135" as="geometry" />
        </mxCell>
        <mxCell id="STUQcW0Rxr31aZqgUczU-55" style="edgeStyle=orthogonalEdgeStyle;rounded=0;orthogonalLoop=1;jettySize=auto;html=1;fontSize=14;" edge="1" parent="1" source="STUQcW0Rxr31aZqgUczU-52" target="STUQcW0Rxr31aZqgUczU-48">
          <mxGeometry relative="1" as="geometry">
            <Array as="points">
              <mxPoint x="740" y="280" />
              <mxPoint x="600" y="280" />
            </Array>
          </mxGeometry>
        </mxCell>
        <mxCell id="STUQcW0Rxr31aZqgUczU-57" style="edgeStyle=orthogonalEdgeStyle;rounded=0;orthogonalLoop=1;jettySize=auto;html=1;entryX=0.5;entryY=1;entryDx=0;entryDy=0;fontSize=14;" edge="1" parent="1" source="STUQcW0Rxr31aZqgUczU-52" target="STUQcW0Rxr31aZqgUczU-56">
          <mxGeometry relative="1" as="geometry" />
        </mxCell>
        <mxCell id="STUQcW0Rxr31aZqgUczU-52" value="&lt;font style=&quot;font-size: 14px&quot;&gt;Availability&amp;nbsp;&lt;br&gt;of product&lt;/font&gt;" style="rhombus;whiteSpace=wrap;html=1;fontSize=18;" vertex="1" parent="1">
          <mxGeometry x="690" y="110" width="100" height="92.5" as="geometry" />
        </mxCell>
        <mxCell id="STUQcW0Rxr31aZqgUczU-56" value="" style="ellipse;whiteSpace=wrap;html=1;fontSize=14;" vertex="1" parent="1">
          <mxGeometry x="720" y="35" width="40" height="40" as="geometry" />
        </mxCell>
        <mxCell id="STUQcW0Rxr31aZqgUczU-58" value="Reject added product" style="text;html=1;strokeColor=none;fillColor=none;align=center;verticalAlign=middle;whiteSpace=wrap;rounded=0;fontSize=14;" vertex="1" parent="1">
          <mxGeometry x="750" y="30" width="80" height="30" as="geometry" />
        </mxCell>
        <mxCell id="STUQcW0Rxr31aZqgUczU-59" value="Not available" style="text;html=1;strokeColor=none;fillColor=none;align=center;verticalAlign=middle;whiteSpace=wrap;rounded=0;fontSize=14;" vertex="1" parent="1">
          <mxGeometry x="670" y="80" width="60" height="30" as="geometry" />
        </mxCell>
        <mxCell id="STUQcW0Rxr31aZqgUczU-60" value="Available" style="text;html=1;strokeColor=none;fillColor=none;align=center;verticalAlign=middle;whiteSpace=wrap;rounded=0;fontSize=14;" vertex="1" parent="1">
          <mxGeometry x="670" y="210" width="60" height="30" as="geometry" />
        </mxCell>
        <mxCell id="STUQcW0Rxr31aZqgUczU-64" style="edgeStyle=orthogonalEdgeStyle;rounded=0;orthogonalLoop=1;jettySize=auto;html=1;fontSize=12;" edge="1" parent="1" source="STUQcW0Rxr31aZqgUczU-61" target="STUQcW0Rxr31aZqgUczU-63">
          <mxGeometry relative="1" as="geometry" />
        </mxCell>
        <mxCell id="STUQcW0Rxr31aZqgUczU-61" value="Place order" style="rounded=0;whiteSpace=wrap;html=1;fontSize=18;" vertex="1" parent="1">
          <mxGeometry x="700" y="338.75" width="120" height="60" as="geometry" />
        </mxCell>
        <mxCell id="STUQcW0Rxr31aZqgUczU-66" style="edgeStyle=orthogonalEdgeStyle;rounded=0;orthogonalLoop=1;jettySize=auto;html=1;exitX=0.5;exitY=0;exitDx=0;exitDy=0;entryX=0.5;entryY=1;entryDx=0;entryDy=0;fontSize=12;" edge="1" parent="1" source="STUQcW0Rxr31aZqgUczU-63" target="STUQcW0Rxr31aZqgUczU-65">
          <mxGeometry relative="1" as="geometry" />
        </mxCell>
        <mxCell id="STUQcW0Rxr31aZqgUczU-70" style="edgeStyle=orthogonalEdgeStyle;rounded=0;orthogonalLoop=1;jettySize=auto;html=1;fontSize=12;exitX=1;exitY=0.5;exitDx=0;exitDy=0;" edge="1" parent="1" source="STUQcW0Rxr31aZqgUczU-63" target="STUQcW0Rxr31aZqgUczU-68">
          <mxGeometry relative="1" as="geometry" />
        </mxCell>
        <mxCell id="STUQcW0Rxr31aZqgUczU-63" value="&lt;font style=&quot;font-size: 12px&quot;&gt;Acceptance &lt;br&gt;of&amp;nbsp;order&lt;/font&gt;" style="rhombus;whiteSpace=wrap;html=1;fontSize=18;" vertex="1" parent="1">
          <mxGeometry x="770" y="177.5" width="90" height="92.5" as="geometry" />
        </mxCell>
        <mxCell id="STUQcW0Rxr31aZqgUczU-65" value="" style="ellipse;whiteSpace=wrap;html=1;fontSize=14;" vertex="1" parent="1">
          <mxGeometry x="795" y="105" width="40" height="40" as="geometry" />
        </mxCell>
        <mxCell id="STUQcW0Rxr31aZqgUczU-67" value="Reject &lt;br&gt;order" style="text;html=1;strokeColor=none;fillColor=none;align=center;verticalAlign=middle;whiteSpace=wrap;rounded=0;fontSize=14;" vertex="1" parent="1">
          <mxGeometry x="800" y="80" width="80" height="30" as="geometry" />
        </mxCell>
        <mxCell id="STUQcW0Rxr31aZqgUczU-68" value="select delivery method and slot for get delivered" style="rounded=0;whiteSpace=wrap;html=1;fontSize=18;" vertex="1" parent="1">
          <mxGeometry x="830" y="290" width="150" height="80" as="geometry" />
        </mxCell>
        <mxCell id="STUQcW0Rxr31aZqgUczU-78" style="edgeStyle=orthogonalEdgeStyle;rounded=0;orthogonalLoop=1;jettySize=auto;html=1;fontSize=12;entryX=0.127;entryY=-0.077;entryDx=0;entryDy=0;entryPerimeter=0;" edge="1" parent="1" source="STUQcW0Rxr31aZqgUczU-68" target="STUQcW0Rxr31aZqgUczU-76">
          <mxGeometry relative="1" as="geometry">
            <Array as="points">
              <mxPoint x="905" y="390" />
              <mxPoint x="1150" y="390" />
              <mxPoint x="1150" y="518" />
              <mxPoint x="1310" y="518" />
            </Array>
          </mxGeometry>
        </mxCell>
        <mxCell id="STUQcW0Rxr31aZqgUczU-71" value="Accept order" style="text;html=1;strokeColor=none;fillColor=none;align=center;verticalAlign=middle;whiteSpace=wrap;rounded=0;fontSize=14;" vertex="1" parent="1">
          <mxGeometry x="835" y="230" width="80" height="30" as="geometry" />
        </mxCell>
        <mxCell id="STUQcW0Rxr31aZqgUczU-72" value="" style="rounded=0;whiteSpace=wrap;html=1;" vertex="1" parent="1">
          <mxGeometry x="1447.16" y="404.25" width="60" height="250" as="geometry" />
        </mxCell>
        <mxCell id="STUQcW0Rxr31aZqgUczU-73" value="Third party Logistic service" style="text;html=1;strokeColor=none;fillColor=none;align=center;verticalAlign=middle;whiteSpace=wrap;rounded=0;rotation=90;fontSize=18;" vertex="1" parent="1">
          <mxGeometry x="1387.16" y="514.25" width="170" height="30" as="geometry" />
        </mxCell>
        <mxCell id="STUQcW0Rxr31aZqgUczU-81" style="edgeStyle=orthogonalEdgeStyle;rounded=0;orthogonalLoop=1;jettySize=auto;html=1;fontSize=12;exitX=1;exitY=0.5;exitDx=0;exitDy=0;entryX=1;entryY=1;entryDx=0;entryDy=0;" edge="1" parent="1" source="STUQcW0Rxr31aZqgUczU-76" target="STUQcW0Rxr31aZqgUczU-80">
          <mxGeometry relative="1" as="geometry">
            <mxPoint x="1427.16" y="534.25" as="targetPoint" />
          </mxGeometry>
        </mxCell>
        <mxCell id="STUQcW0Rxr31aZqgUczU-76" value="Receive the delivery instruction" style="rounded=0;whiteSpace=wrap;html=1;fontSize=18;" vertex="1" parent="1">
          <mxGeometry x="1296.16" y="550" width="110" height="80" as="geometry" />
        </mxCell>
        <mxCell id="STUQcW0Rxr31aZqgUczU-85" style="edgeStyle=orthogonalEdgeStyle;rounded=0;orthogonalLoop=1;jettySize=auto;html=1;entryX=1;entryY=0.75;entryDx=0;entryDy=0;fontSize=12;" edge="1" parent="1" source="STUQcW0Rxr31aZqgUczU-80" target="STUQcW0Rxr31aZqgUczU-84">
          <mxGeometry relative="1" as="geometry" />
        </mxCell>
        <mxCell id="STUQcW0Rxr31aZqgUczU-80" value="Send Accept notification" style="rounded=0;whiteSpace=wrap;html=1;fontSize=18;" vertex="1" parent="1">
          <mxGeometry x="1320" y="434.25" width="110" height="80" as="geometry" />
        </mxCell>
        <mxCell id="STUQcW0Rxr31aZqgUczU-87" style="edgeStyle=orthogonalEdgeStyle;rounded=0;orthogonalLoop=1;jettySize=auto;html=1;fontSize=12;" edge="1" parent="1" source="STUQcW0Rxr31aZqgUczU-84" target="STUQcW0Rxr31aZqgUczU-86">
          <mxGeometry relative="1" as="geometry" />
        </mxCell>
        <mxCell id="STUQcW0Rxr31aZqgUczU-84" value="Pay for the products" style="rounded=0;whiteSpace=wrap;html=1;fontSize=18;" vertex="1" parent="1">
          <mxGeometry x="1010" y="300" width="120" height="60" as="geometry" />
        </mxCell>
        <mxCell id="STUQcW0Rxr31aZqgUczU-89" style="edgeStyle=orthogonalEdgeStyle;rounded=0;orthogonalLoop=1;jettySize=auto;html=1;exitX=0.5;exitY=0;exitDx=0;exitDy=0;entryX=0.5;entryY=1;entryDx=0;entryDy=0;fontSize=12;" edge="1" parent="1" source="STUQcW0Rxr31aZqgUczU-86" target="STUQcW0Rxr31aZqgUczU-88">
          <mxGeometry relative="1" as="geometry" />
        </mxCell>
        <mxCell id="STUQcW0Rxr31aZqgUczU-94" style="edgeStyle=orthogonalEdgeStyle;rounded=0;orthogonalLoop=1;jettySize=auto;html=1;fontSize=12;entryX=0;entryY=0.5;entryDx=0;entryDy=0;" edge="1" parent="1" source="STUQcW0Rxr31aZqgUczU-86" target="STUQcW0Rxr31aZqgUczU-93">
          <mxGeometry relative="1" as="geometry" />
        </mxCell>
        <mxCell id="STUQcW0Rxr31aZqgUczU-86" value="&lt;span style=&quot;font-size: 14px&quot;&gt;Payment &lt;br&gt;acceptance&lt;/span&gt;" style="rhombus;whiteSpace=wrap;html=1;fontSize=18;" vertex="1" parent="1">
          <mxGeometry x="940" y="177.5" width="110" height="80" as="geometry" />
        </mxCell>
        <mxCell id="STUQcW0Rxr31aZqgUczU-88" value="" style="ellipse;whiteSpace=wrap;html=1;fontSize=14;" vertex="1" parent="1">
          <mxGeometry x="975" y="105" width="40" height="40" as="geometry" />
        </mxCell>
        <mxCell id="STUQcW0Rxr31aZqgUczU-90" value="Accept" style="text;html=1;strokeColor=none;fillColor=none;align=center;verticalAlign=middle;whiteSpace=wrap;rounded=0;fontSize=14;" vertex="1" parent="1">
          <mxGeometry x="1060" y="185" width="60" height="30" as="geometry" />
        </mxCell>
        <mxCell id="STUQcW0Rxr31aZqgUczU-91" value="Reject" style="text;html=1;strokeColor=none;fillColor=none;align=center;verticalAlign=middle;whiteSpace=wrap;rounded=0;fontSize=14;" vertex="1" parent="1">
          <mxGeometry x="915" y="147.5" width="60" height="30" as="geometry" />
        </mxCell>
        <mxCell id="STUQcW0Rxr31aZqgUczU-92" value="Reject order" style="text;html=1;strokeColor=none;fillColor=none;align=center;verticalAlign=middle;whiteSpace=wrap;rounded=0;fontSize=14;" vertex="1" parent="1">
          <mxGeometry x="940" y="75" width="100" height="30" as="geometry" />
        </mxCell>
        <mxCell id="STUQcW0Rxr31aZqgUczU-96" style="edgeStyle=orthogonalEdgeStyle;rounded=0;orthogonalLoop=1;jettySize=auto;html=1;entryX=0.5;entryY=0;entryDx=0;entryDy=0;fontSize=12;" edge="1" parent="1" source="STUQcW0Rxr31aZqgUczU-93" target="STUQcW0Rxr31aZqgUczU-95">
          <mxGeometry relative="1" as="geometry" />
        </mxCell>
        <mxCell id="STUQcW0Rxr31aZqgUczU-93" value="Get delivered the product via delivery or arrange pick up on store" style="rounded=0;whiteSpace=wrap;html=1;fontSize=18;" vertex="1" parent="1">
          <mxGeometry x="1090" y="35" width="160" height="135" as="geometry" />
        </mxCell>
        <mxCell id="STUQcW0Rxr31aZqgUczU-95" value="" style="ellipse;whiteSpace=wrap;html=1;fontSize=14;" vertex="1" parent="1">
          <mxGeometry x="1150" y="225" width="40" height="40" as="geometry" />
        </mxCell>
        <mxCell id="STUQcW0Rxr31aZqgUczU-98" value="End the process" style="text;html=1;strokeColor=none;fillColor=none;align=center;verticalAlign=middle;whiteSpace=wrap;rounded=0;fontSize=14;" vertex="1" parent="1">
          <mxGeometry x="1190" y="227.5" width="60" height="30" as="geometry" />
        </mxCell>
      </root>
    </mxGraphModel>
  </diagram>
</mxfile>
